<svg width="200" height="200" xmlns="http://www.w3.org/2000/svg" version="1.1" viewBox="0 0 200 200">
  <!-- Fond transparent -->
  <rect width="100%" height="100%" fill="transparent"/>

  <!-- Motif de cercles transparents (masque) -->
  <g fill="black"> <!-- Les cercles sont noirs pour masquer -->
    <!-- Nombre de cercles réduit de moitié par ligne -->
    <!-- Espacement horizontal : 40 unités -->
    <!-- Espacement vertical : 40 unités -->
    <!-- Rayon des cercles : 2 unités -->
    <!-- Boucle pour les lignes (y) -->
    <g transform="translate(20, 20)">
      <!-- Ligne 1 -->
      <circle cx="0" cy="0" r="2"/>
      <circle cx="40" cy="0" r="2"/>
      <circle cx="80" cy="0" r="2"/>
      <circle cx="120" cy="0" r="2"/>
      <circle cx="160" cy="0" r="2"/>
      <!-- Ligne 2 -->
      <circle cx="0" cy="40" r="2"/>
      <circle cx="40" cy="40" r="2"/>
      <circle cx="80" cy="40" r="2"/>
      <circle cx="120" cy="40" r="2"/>
      <circle cx="160" cy="40" r="2"/>
      <!-- Ligne 3 -->
      <circle cx="0" cy="80" r="2"/>
      <circle cx="40" cy="80" r="2"/>
      <circle cx="80" cy="80" r="2"/>
      <circle cx="120" cy="80" r="2"/>
      <circle cx="160" cy="80" r="2"/>
      <!-- Ligne 4 -->
      <circle cx="0" cy="120" r="2"/>
      <circle cx="40" cy="120" r="2"/>
      <circle cx="80" cy="120" r="2"/>
      <circle cx="120" cy="120" r="2"/>
      <circle cx="160" cy="120" r="2"/>
      <!-- Ligne 2 -->
      <circle cx="0" cy="160" r="2"/>
      <circle cx="40" cy="160" r="2"/>
      <circle cx="80" cy="160" r="2"/>
      <circle cx="120" cy="160" r="2"/>
      <circle cx="160" cy="160" r="2"/>
    </g>
  </g>
</svg>